<svg width="20" height="24" viewBox="0 0 20 24" fill="none" xmlns="http://www.w3.org/2000/svg">
<path d="M15.2611 5.48733C13.1205 2.65275 11.0152 0.399094 10.9266 0.304547C10.7448 0.110484 10.488 0 10.2188 0C9.94954 0 9.69265 0.110484 9.5109 0.304547C9.42233 0.399094 7.31698 2.65275 5.17636 5.48733C2.2185 9.40425 0.71875 12.4164 0.71875 14.4403V14.6965C0.71875 19.8265 4.98041 24 10.2188 24C11.8462 24 13.4524 23.5898 14.8637 22.8138C15.3255 22.5599 15.4892 21.9882 15.2293 21.537C14.9694 21.0858 14.3844 20.9258 13.9224 21.1799C12.7978 21.7981 11.5172 22.125 10.2188 22.125C6.51221 22.125 3.41886 19.5047 2.76547 16.0553C3.21101 16.2887 3.66418 16.4062 4.12234 16.4062C5.1042 16.4062 6.06327 15.8668 6.97292 14.8029C7.01792 14.7502 7.10026 14.7188 7.19305 14.7188C7.28584 14.7188 7.36817 14.7502 7.41323 14.8029C8.32288 15.8668 9.28194 16.4062 10.2638 16.4062C11.2456 16.4062 12.2047 15.8668 13.1143 14.8029C13.1593 14.7502 13.2417 14.7188 13.3345 14.7188C13.4273 14.7188 13.5096 14.7502 13.5546 14.8029C14.4643 15.8668 15.4234 16.4062 16.4052 16.4062C16.8299 16.4062 17.2503 16.3051 17.6644 16.1045C17.5274 16.8073 17.287 17.4848 16.9434 18.1296C16.6986 18.5888 16.8813 19.155 17.3514 19.3941C17.8213 19.6333 18.4009 19.4547 18.6457 18.9955C19.3477 17.6782 19.7188 16.1916 19.7188 14.6965V14.4402C19.7188 12.4164 18.219 9.40425 15.2611 5.48733ZM16.4052 14.5312C16.0352 14.5312 15.5331 14.1922 15.0276 13.6009C14.6162 13.1198 13.9991 12.8438 13.3345 12.8438C12.6698 12.8438 12.0527 13.1198 11.6414 13.6009C11.1358 14.1922 10.6337 14.5312 10.2638 14.5312C9.89378 14.5312 9.39167 14.1922 8.88621 13.6009C8.47483 13.1198 7.85771 12.8438 7.19305 12.8438C6.52838 12.8438 5.91132 13.1198 5.49994 13.6009C4.99442 14.1922 4.49231 14.5312 4.12234 14.5312C3.75285 14.5312 3.2516 14.193 2.74676 13.6032C3.12777 11.9719 4.50186 9.54052 6.71114 6.61322C8.05932 4.82686 9.42113 3.24797 10.2188 2.35139C11.014 3.24506 12.3702 4.81734 13.7167 6.60047C15.9694 9.58355 17.3552 12.0517 17.7086 13.6852C17.2285 14.224 16.7571 14.5312 16.4052 14.5312Z" fill="#5A5A5A"/>
</svg>
